<svg viewBox="0 0 405 405" xmlns="http://www.w3.org/2000/svg">
    <path
        d="M202.5,359.10350834709016C217.10164903271018,360.3628363261349,224.18522552398804,379.6371119425504,237.72265052257617,385.2524646332415C250.15046314286755,390.4075477486816,264.73404390684135,393.95603989146844,277.67892989221855,390.28788841180534C290.08071811664894,386.7736328303115,301.51756715698394,377.0719796262153,307.28073697903557,365.5420092421304C314.3203298048402,351.45838871667274,301.89308714553937,329.55533357849197,313.40481132307696,318.8136185981684C325.0679275429853,307.9306380572428,348.45854626261746,325.2086276629753,361.02956578134535,315.3883927537169C371.1392063137267,307.4909390326212,365.26180837862336,290.14765070958606,366.45185566892667,277.3743036768911C367.53027258775955,265.79913883896967,367.0200808216347,254.20230748320208,367.81063552933756,242.60392624571872C368.54300559265107,231.85918319572596,366.67251886632505,220.38541216515455,371.0082175687646,210.52703573281696C377.0552370388623,196.77751153355604,398.211746712001,189.43524521483062,397.797627135769,174.42044034915276C397.4183995206621,160.67071933302518,379.00421916333664,154.44919488269366,369.1955848057124,144.8060971623637C360.86843168341926,136.61947827509664,348.1897570252828,131.78301702924594,343.53488567435863,121.07347079078099C338.2983109919932,109.0255892352933,348.64708679449325,93.00548408443117,341.8060874866626,81.79058805953144C335.6069896769439,71.6280029961769,318.57694273348307,74.07976183292669,309.89868763183205,65.93145911303195C300.5164730412416,57.12218538557492,300.44522507013306,40.36031253769145,289.8699228114952,33.02599345766762C279.88779348946395,26.103059270510926,266.0830765161932,28.265256034668344,253.98614905518008,27.154279183223696C242.44519976513635,26.09436313873571,230.38555458044223,29.930924868516936,219.3016621545339,26.545033371788893C206.11945498582864,22.518151709143318,197.48633278599985,5.365973329467194,183.7064792924288,5.685346871472824C170.5412377589411,5.990475646744001,162.91618704547557,21.922068835842936,151.2977497074958,28.121149576404854C141.08952338662272,33.56780452148588,129.08442462456026,34.84537977588717,118.86950394870658,40.279469423193206C108.67055867931404,45.70506054235431,97.47116545815659,50.981869560745245,90.71272201304066,60.350912510777746C83.47106789200389,70.38981703668661,85.8960065932051,85.21274203389673,79.02788451283509,95.51080289884486C72.89262296001371,104.71001283629063,60.892131021803486,108.30490459268991,53.34247045971644,116.38386016825763C45.59476582788187,124.67474437668729,37.81025885070273,133.50275978482472,33.65678840970137,144.06279630538026C29.521564509478377,154.5764417080188,31.20190329310991,166.4621113055088,29.267725753926065,177.59295914403012C27.30688642006309,188.8772408704253,21.73785026171779,199.64769368412732,22.00828188744583,211.09788022014877C22.27811260851931,222.52262420533492,30.793907495860246,232.71653725013877,30.839543630338426,244.14437611355962C30.894958594591373,258.0209519749032,13.062693576241326,274.4402918740519,22.30257890292912,284.79340481671545C34.14164147580241,298.05884563319313,59.85311258888752,283.82076605124524,74.81830232494553,293.4217253170512C84.26199878242144,299.48035515108535,81.93798010482797,314.6224026400401,85.42201589570648,325.2878558819173C89.7348534639074,338.49046635563457,88.03108282665755,355.35493307192445,98.15568048145619,364.8629304183081C107.22780219903893,373.3825488918347,122.59322000676245,369.1438629466013,134.78480175615476,371.64438805964784C146.07556251068658,373.9601524446518,157.0960986531462,381.37509817785315,168.4291786133442,379.2762075854955C181.43625332734342,376.8672925467606,189.32066507259373,357.96684870117593,202.5,359.10350834709016"
        fill="#8A3FFC" />
    <text x="50%" y="55%" text-anchor="middle" dominant-baseline="middle" font-size="100" fill="#FFFFFF" font-family="Arial">Logo</text>
</svg>